# xmcd
#
# Track frame offsets:
#	150
#	13830
#	25715
#	40622
#
# Disc length: 966 seconds
#
# Revision: 1
# Processed by: cddbd v1.5.2PL0 Copyright (c) Steve Scherf et al.
# Submitted via: audiograbber 1.83.01
#
DISCID=2203c404
DTITLE=Crosby, Stills and Nash - Our House
DYEAR=1900
DGENRE=
TTITLE0=Our House
TTITLE1=Marrakesh Express
TTITLE2=Carry On
TTITLE3=Dear Mr. Fantasy
EXTD=
EXTT0=
EXTT1=
EXTT2=
EXTT3=
PLAYORDER=
